<svg id="f8bbc1c6-e522-4f7c-b5d3-851291367482" data-name="Layer 1" xmlns="http://www.w3.org/2000/svg" viewBox="0 0 192 98"><circle cx="44.8" cy="49.34" r="10.39" style="fill:#3f51b5"/><path d="M94.65,46.4l5.42-13.72h2.16l5.4,13.72H104.8L103.55,43H98.73L97.48,46.4Zm6.5-10.84-2,5.55h3.88Z"/><path d="M109.1,46.4V32.68h6.07a4,4,0,0,1,1.75.39,4.77,4.77,0,0,1,1.38,1,4.84,4.84,0,0,1,.91,1.47,4.38,4.38,0,0,1,.33,1.65,4.63,4.63,0,0,1-.67,2.43,3.88,3.88,0,0,1-1.81,1.57l3.23,5.16h-3l-2.88-4.6h-2.63v4.6Zm2.66-6.94h3.35a1.35,1.35,0,0,0,.68-.17,1.8,1.8,0,0,0,.56-.47,2.49,2.49,0,0,0,.36-.71,2.74,2.74,0,0,0,.14-.87,2.51,2.51,0,0,0-.57-1.6,2.19,2.19,0,0,0-.6-.46A1.58,1.58,0,0,0,115,35h-3.23Z"/><path d="M132.06,35h-4.37V46.4H125V35h-4.39V32.68h11.42Z"/><path d="M133.78,46.4V32.7h2.67V46.4Z"/><path d="M138.5,39.44A7.19,7.19,0,0,1,139,37a6.68,6.68,0,0,1,1.28-2.19,6.45,6.45,0,0,1,2.06-1.57,6.21,6.21,0,0,1,2.78-.6,6,6,0,0,1,3.19.83,5.22,5.22,0,0,1,2,2.17L148.19,37a3.07,3.07,0,0,0-1.4-1.61,3.75,3.75,0,0,0-.9-.33A3.55,3.55,0,0,0,145,35a3.36,3.36,0,0,0-1.67.4,3.75,3.75,0,0,0-1.18,1.06,4.58,4.58,0,0,0-.72,1.47,5.8,5.8,0,0,0-.24,1.63,5.39,5.39,0,0,0,.28,1.75,4.88,4.88,0,0,0,.79,1.48,3.78,3.78,0,0,0,1.23,1,3.23,3.23,0,0,0,1.57.39,4.1,4.1,0,0,0,.9-.11,3.49,3.49,0,0,0,.9-.37,3.79,3.79,0,0,0,.81-.65,3.06,3.06,0,0,0,.59-1l2.19,1.26a4,4,0,0,1-.9,1.36,5.51,5.51,0,0,1-1.34,1,7,7,0,0,1-1.59.62,6.65,6.65,0,0,1-1.64.21,5.6,5.6,0,0,1-2.62-.62,6.87,6.87,0,0,1-2.05-1.61A7.38,7.38,0,0,1,139,42,7.19,7.19,0,0,1,138.5,39.44Z"/><path d="M152.27,46.4V32.68h2.67V44.06h7V46.4Z"/><path d="M173.19,44.06V46.4h-9.54V32.68H173V35h-6.69v3.3h5.78v2.17h-5.78v3.57Z"/><path d="M105.25,63.09a5,5,0,0,1-3.66,1.64,5.41,5.41,0,0,1-2.47-.58,6.68,6.68,0,0,1-2-1.56,7.49,7.49,0,0,1-1.35-2.25,7.25,7.25,0,0,1-.5-2.65,7.15,7.15,0,0,1,.5-2.66,6.68,6.68,0,0,1,3.44-3.67,6,6,0,0,1,2.58-.55,6.07,6.07,0,0,1,3.21.81,5.18,5.18,0,0,1,2,2.19l-2,1.46a3.76,3.76,0,0,0-1.38-1.56,3.67,3.67,0,0,0-2-.54,3.09,3.09,0,0,0-1.53.37,3.4,3.4,0,0,0-1.17,1A4.88,4.88,0,0,0,98.21,56a5.83,5.83,0,0,0,0,3.57A4.51,4.51,0,0,0,99,61a4,4,0,0,0,1.23,1,3.38,3.38,0,0,0,1.56.36,4.39,4.39,0,0,0,3.42-1.87v-1h-2.77v-2h5v7h-2.2Z" style="fill:#3f51b5"/><path d="M108.36,64.63l5.41-13.72h2.17l5.39,13.72h-2.82l-1.26-3.42h-4.81l-1.26,3.42Zm6.5-10.84-2,5.54h3.88Z" style="fill:#3f51b5"/><path d="M122.8,64.63V50.91h2.67V62.29h7v2.34Z" style="fill:#3f51b5"/><path d="M132.8,64.63l5.41-13.72h2.17l5.39,13.72H143l-1.26-3.42h-4.81l-1.26,3.42Zm6.49-10.84-2,5.54h3.89Z" style="fill:#3f51b5"/><path d="M148.63,50.91l3.42,5.1,3.41-5.1h2.88l-4.89,7,4.73,6.76H155.3l-3.25-4.91-3.26,4.91h-2.9l4.73-6.76-4.89-7Z" style="fill:#3f51b5"/><path d="M161.08,50.91l3.39,6.61,3.44-6.61h2.88l-5,8.93v4.79h-2.65V59.8l-5-8.89Z" style="fill:#3f51b5"/><rect x="80.99" y="32.28" width="1.4" height="33.43"/><path d="M68.64,58.91A25.89,25.89,0,1,0,63,67.31,26,26,0,0,0,68.64,58.91ZM40.34,25.83A24,24,0,0,1,48,25.66a23.05,23.05,0,0,1,7.28,2.24,24.75,24.75,0,0,1,6.18,4.45,24.35,24.35,0,0,1,4.43,6.2,22.51,22.51,0,0,1,2.22,7.28,23.28,23.28,0,0,1-2.83,14.76c-1-.38-1.93-.78-2.89-1.19a20,20,0,0,0,2.43-6.26,20.94,20.94,0,0,0,.25-6.7l-.12-.84a7.85,7.85,0,0,0-.15-.82c-.13-.55-.26-1.1-.41-1.64l-.55-1.59c-.09-.27-.22-.52-.33-.78L63.1,40a21.07,21.07,0,0,0-3.88-5.47A20.52,20.52,0,0,0,47.33,28.7a21.24,21.24,0,0,0-6.7.23,20.48,20.48,0,0,0-6.26,2.41c-.42-.95-.81-1.92-1.19-2.89A23.9,23.9,0,0,1,40.34,25.83Zm2.87,37A13.9,13.9,0,0,1,33,41.47c.9.48,1.81,1,2.71,1.51a10.8,10.8,0,0,0,15,15c.52.91,1,1.8,1.5,2.72A14,14,0,0,1,43.21,62.82Zm9.71-.74c.53,1,1,2.09,1.51,3.16a18.2,18.2,0,0,1-5.81,2.28,19.52,19.52,0,0,1-6.24.26l-.78-.11a6.53,6.53,0,0,1-.77-.14l-1.52-.38-1.48-.51a5.92,5.92,0,0,1-.73-.31L36.39,66a18.73,18.73,0,0,1-8.7-8.73l-.33-.71a6.44,6.44,0,0,1-.3-.72c-.17-.5-.35-1-.51-1.49l-.38-1.52a6.51,6.51,0,0,1-.13-.77l-.11-.78a18.83,18.83,0,0,1,2.58-12c1.06.48,2.11,1,3.14,1.52a15,15,0,0,0-2,4.77,16,16,0,0,0-.31,5.17A15.44,15.44,0,0,0,48.14,64.05,14.52,14.52,0,0,0,52.92,62.08Zm-5-5.24a8.48,8.48,0,0,1-6.51,0A8.65,8.65,0,0,1,38.71,55a8.51,8.51,0,0,1,0-12,8.65,8.65,0,0,1,2.75-1.83,8.48,8.48,0,0,1,6.51,0,8.48,8.48,0,0,1,0,15.68ZM55.47,48a10.8,10.8,0,0,0-16.75-8c-.52-.91-1-1.8-1.5-2.72A13.9,13.9,0,0,1,56.4,56.53c-.91-.48-1.81-1-2.71-1.51A11,11,0,0,0,55.47,48Zm4.29,4.51a15.77,15.77,0,0,0,.3-5.17,15.39,15.39,0,0,0-13.6-13.64,15.77,15.77,0,0,0-5.17.29,14.52,14.52,0,0,0-4.78,2c-.53-1-1-2.09-1.51-3.16a18.2,18.2,0,0,1,5.81-2.28,19.51,19.51,0,0,1,6.24-.26l.78.11a7.37,7.37,0,0,1,.77.14l1.52.38,1.48.51a5.78,5.78,0,0,1,.72.31L53,32a19.8,19.8,0,0,1,5.08,3.63,19.43,19.43,0,0,1,3.61,5.1l.34.71a6.44,6.44,0,0,1,.3.72c.17.5.35,1,.51,1.49l.37,1.52a6.53,6.53,0,0,1,.14.77l.11.78a18.83,18.83,0,0,1-2.58,12c-1.06-.48-2.11-1-3.15-1.52A14.82,14.82,0,0,0,59.76,52.47ZM26,34.69a8.67,8.67,0,0,1,.65-.82c.46-.52.93-1,1.4-1.54s1-1,1.57-1.43c.25-.24.55-.43.83-.65l.86-.63a83.74,83.74,0,0,0,6.6,11l-.83.75c-.24.27-.48.54-.73.8a84.8,84.8,0,0,0-11-6.63Zm23.1,37.48a24,24,0,0,1-7.61.17A23.05,23.05,0,0,1,34.2,70.1,24.75,24.75,0,0,1,28,65.65a24.35,24.35,0,0,1-4.43-6.2,22.78,22.78,0,0,1-2.23-7.28,23.28,23.28,0,0,1,2.83-14.76c1,.38,1.94.78,2.9,1.19a20,20,0,0,0-2.43,6.26,20.94,20.94,0,0,0-.25,6.7l.12.84a7.85,7.85,0,0,0,.15.82c.13.55.26,1.1.4,1.64l.56,1.59a5.88,5.88,0,0,0,.33.78l.35.76a21.35,21.35,0,0,0,3.89,5.47A20.52,20.52,0,0,0,42.09,69.3a21.22,21.22,0,0,0,6.7-.23,20.44,20.44,0,0,0,6.27-2.41c.41,1,.81,1.92,1.19,2.89A23.9,23.9,0,0,1,49.09,72.17ZM59.82,67.1a10.31,10.31,0,0,1-.83.65l-.86.63a83.74,83.74,0,0,0-6.6-11c.27-.25.54-.5.83-.75s.48-.54.73-.8a84.68,84.68,0,0,0,11,6.63l-.61.84c-.22.28-.41.57-.65.82-.46.52-.93,1-1.4,1.54S60.35,66.63,59.82,67.1Z"/></svg>